<mxfile host="65bd71144e">
    <diagram id="t1QAMHBQt2Z4F_DE71VQ" name="Page-1">
        <mxGraphModel dx="806" dy="588" grid="1" gridSize="10" guides="1" tooltips="1" connect="1" arrows="1" fold="1" page="1" pageScale="1" pageWidth="827" pageHeight="1169" math="0" shadow="0">
            <root>
                <mxCell id="0"/>
                <mxCell id="1" parent="0"/>
                <mxCell id="10" value="&lt;div style=&quot;text-align: left; font-size: 15px;&quot;&gt;&lt;span style=&quot;background-color: initial; font-size: 15px;&quot;&gt;TEJ3M-Unit-4-19&lt;/span&gt;&lt;/div&gt;&lt;div style=&quot;text-align: left; font-size: 15px;&quot;&gt;&lt;span style=&quot;background-color: initial; font-size: 15px;&quot;&gt;Mars Laurio&lt;/span&gt;&lt;/div&gt;&lt;div style=&quot;text-align: left; font-size: 15px;&quot;&gt;&lt;span style=&quot;background-color: initial; font-size: 15px;&quot;&gt;DEC 2023&lt;/span&gt;&lt;/div&gt;&lt;div style=&quot;text-align: left; font-size: 15px;&quot;&gt;&lt;span style=&quot;background-color: initial; font-size: 15px;&quot;&gt;2 Bit Full Adder with Chips&lt;/span&gt;&lt;/div&gt;" style="text;html=1;align=center;verticalAlign=middle;resizable=0;points=[];autosize=1;strokeColor=none;fillColor=none;fontSize=15;fontFamily=Helvetica;fontColor=default;" parent="1" vertex="1">
                    <mxGeometry x="43" y="30" width="200" height="90" as="geometry"/>
                </mxCell>
                <mxCell id="20" value="&lt;div style=&quot;text-align: left; font-size: 14px;&quot;&gt;&lt;div style=&quot;font-size: 14px;&quot;&gt;&lt;span style=&quot;font-size: 14px;&quot;&gt;A2 | A1 | B2 | B1 | Cout | S2 | S1&lt;/span&gt;&lt;/div&gt;&lt;div style=&quot;font-size: 14px;&quot;&gt;&lt;span style=&quot;font-size: 14px;&quot;&gt;--------------------------------------------&lt;/span&gt;&lt;/div&gt;&lt;div style=&quot;font-size: 14px;&quot;&gt;&lt;span style=&quot;font-size: 14px;&quot;&gt;&amp;nbsp;0&amp;nbsp; | 0&amp;nbsp; &amp;nbsp;| 0&amp;nbsp; &amp;nbsp; | 0&amp;nbsp; &amp;nbsp;| 0&amp;nbsp; &amp;nbsp; &amp;nbsp; &amp;nbsp;| 0&amp;nbsp; &amp;nbsp;| 0&amp;nbsp;&amp;nbsp;&lt;/span&gt;&lt;/div&gt;&lt;div style=&quot;font-size: 14px;&quot;&gt;&lt;span style=&quot;font-size: 14px;&quot;&gt;&amp;nbsp;0&amp;nbsp; | 0&amp;nbsp; &amp;nbsp;| 0&amp;nbsp; &amp;nbsp; | 1&amp;nbsp; &amp;nbsp;| 0&amp;nbsp; &amp;nbsp; &amp;nbsp; &amp;nbsp;| 0&amp;nbsp; &amp;nbsp;| 1&amp;nbsp; &amp;nbsp;&amp;nbsp;&lt;/span&gt;&lt;/div&gt;&lt;div style=&quot;font-size: 14px;&quot;&gt;&lt;span style=&quot;font-size: 14px;&quot;&gt;&amp;nbsp;0&amp;nbsp; | 0&amp;nbsp; &amp;nbsp;| 1&amp;nbsp; &amp;nbsp; | 0&amp;nbsp; &amp;nbsp;| 0&amp;nbsp; &amp;nbsp; &amp;nbsp; &amp;nbsp;| 1&amp;nbsp; &amp;nbsp;| 0&amp;nbsp; &amp;nbsp;&amp;nbsp;&lt;/span&gt;&lt;/div&gt;&lt;div style=&quot;font-size: 14px;&quot;&gt;&lt;span style=&quot;font-size: 14px;&quot;&gt;&amp;nbsp;0&amp;nbsp; | 0&amp;nbsp; &amp;nbsp;| 1&amp;nbsp; &amp;nbsp; | 1&amp;nbsp; &amp;nbsp;| 0&amp;nbsp; &amp;nbsp; &amp;nbsp; &amp;nbsp;| 1&amp;nbsp; &amp;nbsp;| 1&amp;nbsp; &amp;nbsp; &amp;nbsp;&lt;/span&gt;&lt;/div&gt;&lt;div style=&quot;font-size: 14px;&quot;&gt;&lt;span style=&quot;font-size: 14px;&quot;&gt;&amp;nbsp;0&amp;nbsp; | 1&amp;nbsp; &amp;nbsp;| 0&amp;nbsp; &amp;nbsp; | 0&amp;nbsp; &amp;nbsp;| 0&amp;nbsp; &amp;nbsp; &amp;nbsp; &amp;nbsp;| 0&amp;nbsp; &amp;nbsp;| 1&amp;nbsp; &amp;nbsp;&lt;/span&gt;&lt;/div&gt;&lt;div style=&quot;font-size: 14px;&quot;&gt;&lt;span style=&quot;font-size: 14px;&quot;&gt;&amp;nbsp;0&amp;nbsp; | 1&amp;nbsp; &amp;nbsp;| 0&amp;nbsp; &amp;nbsp; | 1&amp;nbsp; &amp;nbsp;| 0&amp;nbsp; &amp;nbsp; &amp;nbsp; &amp;nbsp;| 1&amp;nbsp; &amp;nbsp;| 0&amp;nbsp; &amp;nbsp;&lt;/span&gt;&lt;/div&gt;&lt;div style=&quot;font-size: 14px;&quot;&gt;&lt;span style=&quot;font-size: 14px;&quot;&gt;&amp;nbsp;0&amp;nbsp; | 1&amp;nbsp; &amp;nbsp;| 1&amp;nbsp; &amp;nbsp; | 0&amp;nbsp; &amp;nbsp;| 0&amp;nbsp; &amp;nbsp; &amp;nbsp; &amp;nbsp;| 1&amp;nbsp; &amp;nbsp;| 1&amp;nbsp; &amp;nbsp;&lt;/span&gt;&lt;/div&gt;&lt;div style=&quot;font-size: 14px;&quot;&gt;&lt;span style=&quot;font-size: 14px;&quot;&gt;&amp;nbsp;0&amp;nbsp; | 1&amp;nbsp; &amp;nbsp;| 1&amp;nbsp; &amp;nbsp; | 1&amp;nbsp; &amp;nbsp;| 1&amp;nbsp; &amp;nbsp; &amp;nbsp; &amp;nbsp;| 0&amp;nbsp; &amp;nbsp;| 0&amp;nbsp; &amp;nbsp;&lt;/span&gt;&lt;/div&gt;&lt;div style=&quot;font-size: 14px;&quot;&gt;&lt;span style=&quot;font-size: 14px;&quot;&gt;&amp;nbsp;1&amp;nbsp; | 0&amp;nbsp; &amp;nbsp;| 0&amp;nbsp; &amp;nbsp; | 0&amp;nbsp; &amp;nbsp;| 0&amp;nbsp; &amp;nbsp; &amp;nbsp; &amp;nbsp;| 1&amp;nbsp; &amp;nbsp;| 0&amp;nbsp; &amp;nbsp;&amp;nbsp;&lt;/span&gt;&lt;/div&gt;&lt;div style=&quot;font-size: 14px;&quot;&gt;&lt;span style=&quot;font-size: 14px;&quot;&gt;&amp;nbsp;1&amp;nbsp; | 0&amp;nbsp; &amp;nbsp;| 0&amp;nbsp; &amp;nbsp; | 1&amp;nbsp; &amp;nbsp;| 0&amp;nbsp; &amp;nbsp; &amp;nbsp; &amp;nbsp;| 1&amp;nbsp; &amp;nbsp;| 1&amp;nbsp; &amp;nbsp;&amp;nbsp;&lt;/span&gt;&lt;/div&gt;&lt;div style=&quot;font-size: 14px;&quot;&gt;&lt;span style=&quot;font-size: 14px;&quot;&gt;&amp;nbsp;1&amp;nbsp; | 0&amp;nbsp; &amp;nbsp;| 1&amp;nbsp; &amp;nbsp; | 0&amp;nbsp; &amp;nbsp;| 1&amp;nbsp; &amp;nbsp; &amp;nbsp; &amp;nbsp;| 0&amp;nbsp; &amp;nbsp;| 0&amp;nbsp; &amp;nbsp; &amp;nbsp;&lt;/span&gt;&lt;/div&gt;&lt;div style=&quot;font-size: 14px;&quot;&gt;&lt;span style=&quot;font-size: 14px;&quot;&gt;&amp;nbsp;1&amp;nbsp; | 0&amp;nbsp; &amp;nbsp;| 1&amp;nbsp; &amp;nbsp; | 1&amp;nbsp; &amp;nbsp;| 1&amp;nbsp; &amp;nbsp; &amp;nbsp; &amp;nbsp;| 0&amp;nbsp; &amp;nbsp;| 1&amp;nbsp; &amp;nbsp;&amp;nbsp;&lt;/span&gt;&lt;/div&gt;&lt;div style=&quot;font-size: 14px;&quot;&gt;&lt;span style=&quot;font-size: 14px;&quot;&gt;&amp;nbsp;1&amp;nbsp; | 1&amp;nbsp; &amp;nbsp;| 0&amp;nbsp; &amp;nbsp; | 0&amp;nbsp; &amp;nbsp;| 0&amp;nbsp; &amp;nbsp; &amp;nbsp; &amp;nbsp;| 1&amp;nbsp; &amp;nbsp;| 1&amp;nbsp; &amp;nbsp; &amp;nbsp;&lt;/span&gt;&lt;/div&gt;&lt;div style=&quot;font-size: 14px;&quot;&gt;&lt;span style=&quot;font-size: 14px;&quot;&gt;&amp;nbsp;1&amp;nbsp; | 1&amp;nbsp; &amp;nbsp;| 0&amp;nbsp; &amp;nbsp; | 1&amp;nbsp; &amp;nbsp;| 1&amp;nbsp; &amp;nbsp; &amp;nbsp; &amp;nbsp;| 0&amp;nbsp; &amp;nbsp;| 0&amp;nbsp; &amp;nbsp;&amp;nbsp;&lt;/span&gt;&lt;/div&gt;&lt;div style=&quot;font-size: 14px;&quot;&gt;&lt;span style=&quot;font-size: 14px;&quot;&gt;&amp;nbsp;1&amp;nbsp; | 1&amp;nbsp; &amp;nbsp;| 1&amp;nbsp; &amp;nbsp; | 0&amp;nbsp; &amp;nbsp;| 1&amp;nbsp; &amp;nbsp; &amp;nbsp; &amp;nbsp;| 0&amp;nbsp; &amp;nbsp;| 1&amp;nbsp; &amp;nbsp;&amp;nbsp;&lt;/span&gt;&lt;/div&gt;&lt;div style=&quot;font-size: 14px;&quot;&gt;&lt;span style=&quot;font-size: 14px;&quot;&gt;&amp;nbsp;1&amp;nbsp; | 1&amp;nbsp; &amp;nbsp;| 1&amp;nbsp; &amp;nbsp; | 1&amp;nbsp; &amp;nbsp;| 1&amp;nbsp; &amp;nbsp; &amp;nbsp; &amp;nbsp;| 1&amp;nbsp; &amp;nbsp;| 0&amp;nbsp; &amp;nbsp;&amp;nbsp;&lt;/span&gt;&lt;/div&gt;&lt;/div&gt;" style="text;html=1;align=center;verticalAlign=middle;resizable=0;points=[];autosize=1;opacity=0;fontStyle=1;fontSize=14;" parent="1" vertex="1">
                    <mxGeometry x="540" y="21.25" width="260" height="320" as="geometry"/>
                </mxCell>
                <mxCell id="269" style="edgeStyle=orthogonalEdgeStyle;html=1;exitX=1;exitY=0.75;exitDx=0;exitDy=0;entryX=0.25;entryY=1;entryDx=0;entryDy=0;fontFamily=Helvetica;fontSize=12;fontColor=default;rounded=0;endArrow=none;endFill=0;" edge="1" parent="1" source="239" target="265">
                    <mxGeometry relative="1" as="geometry"/>
                </mxCell>
                <mxCell id="291" style="edgeStyle=orthogonalEdgeStyle;rounded=0;html=1;exitX=1;exitY=0.25;exitDx=0;exitDy=0;fontFamily=Helvetica;fontSize=15;fontColor=default;endArrow=none;endFill=0;" edge="1" parent="1" source="239">
                    <mxGeometry relative="1" as="geometry">
                        <mxPoint x="230" y="296.7142857142858" as="targetPoint"/>
                    </mxGeometry>
                </mxCell>
                <mxCell id="239" value="Full Adder" style="rounded=0;whiteSpace=wrap;html=1;" parent="1" vertex="1">
                    <mxGeometry x="95" y="281.25" width="90" height="60" as="geometry"/>
                </mxCell>
                <mxCell id="292" style="edgeStyle=orthogonalEdgeStyle;rounded=0;html=1;exitX=1;exitY=0.25;exitDx=0;exitDy=0;fontFamily=Helvetica;fontSize=15;fontColor=default;endArrow=none;endFill=0;" edge="1" parent="1" source="265">
                    <mxGeometry relative="1" as="geometry">
                        <mxPoint x="443" y="209.28571428571433" as="targetPoint"/>
                    </mxGeometry>
                </mxCell>
                <mxCell id="265" value="Full Adder" style="rounded=0;whiteSpace=wrap;html=1;" vertex="1" parent="1">
                    <mxGeometry x="312" y="194" width="90" height="60" as="geometry"/>
                </mxCell>
                <mxCell id="272" style="edgeStyle=orthogonalEdgeStyle;rounded=0;html=1;exitX=0.5;exitY=0;exitDx=0;exitDy=0;exitPerimeter=0;entryX=0;entryY=0.25;entryDx=0;entryDy=0;fontFamily=Helvetica;fontSize=12;fontColor=default;endArrow=none;endFill=0;" edge="1" parent="1" target="265">
                    <mxGeometry relative="1" as="geometry">
                        <mxPoint x="268.25" y="208.7499999999999" as="sourcePoint"/>
                    </mxGeometry>
                </mxCell>
                <mxCell id="274" style="edgeStyle=orthogonalEdgeStyle;rounded=0;html=1;exitX=0.5;exitY=0;exitDx=0;exitDy=0;exitPerimeter=0;entryX=0;entryY=0.75;entryDx=0;entryDy=0;fontFamily=Helvetica;fontSize=12;fontColor=default;endArrow=none;endFill=0;" edge="1" parent="1" target="265">
                    <mxGeometry relative="1" as="geometry">
                        <mxPoint x="268.25" y="238.7499999999999" as="sourcePoint"/>
                    </mxGeometry>
                </mxCell>
                <mxCell id="278" style="edgeStyle=orthogonalEdgeStyle;rounded=0;html=1;exitX=0.5;exitY=0;exitDx=0;exitDy=0;exitPerimeter=0;entryX=0;entryY=0.25;entryDx=0;entryDy=0;fontFamily=Helvetica;fontSize=12;fontColor=default;endArrow=none;endFill=0;" edge="1" parent="1" target="239">
                    <mxGeometry relative="1" as="geometry">
                        <mxPoint x="57.25" y="296.2499999999999" as="sourcePoint"/>
                    </mxGeometry>
                </mxCell>
                <mxCell id="277" style="edgeStyle=orthogonalEdgeStyle;rounded=0;html=1;exitX=0.5;exitY=0;exitDx=0;exitDy=0;exitPerimeter=0;entryX=0;entryY=0.75;entryDx=0;entryDy=0;fontFamily=Helvetica;fontSize=12;fontColor=default;endArrow=none;endFill=0;" edge="1" parent="1" target="239">
                    <mxGeometry relative="1" as="geometry">
                        <mxPoint x="57.25" y="326.2499999999999" as="sourcePoint"/>
                    </mxGeometry>
                </mxCell>
                <mxCell id="282" style="edgeStyle=orthogonalEdgeStyle;rounded=0;html=1;exitX=0.5;exitY=0;exitDx=0;exitDy=0;exitPerimeter=0;entryX=0.25;entryY=1;entryDx=0;entryDy=0;fontFamily=Helvetica;fontSize=15;fontColor=default;endArrow=none;endFill=0;" edge="1" parent="1" source="281" target="239">
                    <mxGeometry relative="1" as="geometry"/>
                </mxCell>
                <mxCell id="281" value="" style="pointerEvents=1;verticalLabelPosition=bottom;shadow=0;dashed=0;align=center;html=1;verticalAlign=top;shape=mxgraph.electrical.signal_sources.protective_earth;strokeColor=default;fontFamily=Helvetica;fontSize=12;fontColor=default;fillColor=#18141D;rotation=90;" vertex="1" parent="1">
                    <mxGeometry x="40" y="364.25" width="17" height="15.5" as="geometry"/>
                </mxCell>
                <mxCell id="283" value="A1" style="text;html=1;align=center;verticalAlign=middle;resizable=0;points=[];autosize=1;strokeColor=none;fillColor=none;fontSize=15;fontFamily=Helvetica;fontColor=default;" vertex="1" parent="1">
                    <mxGeometry x="10" y="280" width="40" height="30" as="geometry"/>
                </mxCell>
                <mxCell id="284" value="B1" style="text;html=1;align=center;verticalAlign=middle;resizable=0;points=[];autosize=1;strokeColor=none;fillColor=none;fontSize=15;fontFamily=Helvetica;fontColor=default;" vertex="1" parent="1">
                    <mxGeometry x="10" y="320" width="40" height="30" as="geometry"/>
                </mxCell>
                <mxCell id="286" value="A2" style="text;html=1;align=center;verticalAlign=middle;resizable=0;points=[];autosize=1;strokeColor=none;fillColor=none;fontSize=15;fontFamily=Helvetica;fontColor=default;" vertex="1" parent="1">
                    <mxGeometry x="218" y="194" width="40" height="30" as="geometry"/>
                </mxCell>
                <mxCell id="288" value="B2" style="text;html=1;align=center;verticalAlign=middle;resizable=0;points=[];autosize=1;strokeColor=none;fillColor=none;fontSize=15;fontFamily=Helvetica;fontColor=default;" vertex="1" parent="1">
                    <mxGeometry x="218" y="225.25" width="40" height="30" as="geometry"/>
                </mxCell>
                <mxCell id="289" value="Cin 2s" style="text;html=1;align=center;verticalAlign=middle;resizable=0;points=[];autosize=1;strokeColor=none;fillColor=none;fontSize=15;fontFamily=Helvetica;fontColor=default;" vertex="1" parent="1">
                    <mxGeometry x="343" y="270" width="70" height="30" as="geometry"/>
                </mxCell>
                <mxCell id="290" value="Cin 1s" style="text;html=1;align=center;verticalAlign=middle;resizable=0;points=[];autosize=1;strokeColor=none;fillColor=none;fontSize=15;fontFamily=Helvetica;fontColor=default;" vertex="1" parent="1">
                    <mxGeometry x="50" y="379.75" width="70" height="30" as="geometry"/>
                </mxCell>
                <mxCell id="293" value="Sum 1s" style="text;html=1;align=center;verticalAlign=middle;resizable=0;points=[];autosize=1;strokeColor=none;fillColor=none;fontSize=15;fontFamily=Helvetica;fontColor=default;" vertex="1" parent="1">
                    <mxGeometry x="240" y="290" width="70" height="30" as="geometry"/>
                </mxCell>
                <mxCell id="294" value="Sum 2s" style="text;html=1;align=center;verticalAlign=middle;resizable=0;points=[];autosize=1;strokeColor=none;fillColor=none;fontSize=15;fontFamily=Helvetica;fontColor=default;" vertex="1" parent="1">
                    <mxGeometry x="446.5" y="204" width="70" height="30" as="geometry"/>
                </mxCell>
            </root>
        </mxGraphModel>
    </diagram>
</mxfile>